<svg width="16" height="16" viewBox="0 0 16 16" fill="none" xmlns="http://www.w3.org/2000/svg">
<path fill-rule="evenodd" clip-rule="evenodd" d="M3.33331 3.33331C2.80288 3.33331 2.29417 3.54403 1.9191 3.9191C1.54403 4.29417 1.33331 4.80288 1.33331 5.33331V10.6666C1.33331 11.1971 1.54403 11.7058 1.9191 12.0809C2.29417 12.4559 2.80288 12.6666 3.33331 12.6666H9.99998C10.5304 12.6666 11.0391 12.4559 11.4142 12.0809C11.7893 11.7058 12 11.1971 12 10.6666V9.60931L13.5286 11.138C13.6219 11.2312 13.7407 11.2947 13.87 11.3204C13.9993 11.3461 14.1333 11.3329 14.2551 11.2824C14.3769 11.232 14.481 11.1466 14.5542 11.037C14.6275 10.9273 14.6666 10.7985 14.6666 10.6666V5.33331C14.6666 5.20148 14.6275 5.07261 14.5542 4.96301C14.481 4.8534 14.3769 4.76797 14.2551 4.71753C14.1333 4.66708 13.9993 4.65388 13.87 4.67959C13.7407 4.7053 13.6219 4.76877 13.5286 4.86198L12 6.39065V5.33331C12 4.80288 11.7893 4.29417 11.4142 3.9191C11.0391 3.54403 10.5304 3.33331 9.99998 3.33331H3.33331Z" fill="#F63BCD"/>
</svg>
