<?xml version="1.0" encoding="UTF-8"?>
<svg width="14px" height="14px" viewBox="0 0 14 14" version="1.1" xmlns="http://www.w3.org/2000/svg" xmlns:xlink="http://www.w3.org/1999/xlink">
    <!-- Generator: Sketch 53.2 (72643) - https://sketchapp.com -->
    <title>Group 2</title>
    <desc>Created with Sketch.</desc>
    <g id="Page-1" stroke="none" stroke-width="1" fill="none" fill-rule="evenodd">
        <g id="Group-2" transform="translate(0.876860, 0.111450)" fill="#EC2D30">
            <path d="M10.49684,5.02975 L1.74947,5.02975 C0.78327,5.02975 -2.84217094e-14,5.81295 -2.84217094e-14,6.77915 L-2.84217094e-14,12.02765 C-2.84217094e-14,12.99385 0.78327,13.77705 1.74947,13.77705 L10.49684,13.77705 C11.46304,13.77705 12.24624,12.99385 12.24624,12.02765 L12.24624,6.77915 C12.24624,5.81295 11.46304,5.02975 10.49684,5.02975 Z" id="Path" fill-rule="nonzero"></path>
            <path d="M3.9363,1.3121 C3.87831,1.3121 3.82268,1.33514 3.78167,1.37615 C3.74066,1.41716 3.71762,1.47279 3.71762,1.53079 L3.71762,5.90445 L2.40552,5.90445 L2.40552,1.53079 C2.40552,0.68579 3.09131,-1.77635684e-15 3.9363,-1.77635684e-15 L8.30994,-1.77635684e-15 C9.15494,-1.77635684e-15 9.84074,0.68579 9.84074,1.53079 L9.84074,5.90445 L8.52864,5.90445 L8.52864,1.53079 C8.52864,1.47279 8.50564,1.41716 8.46464,1.37615 C8.42364,1.33514 8.36794,1.3121 8.30994,1.3121 L3.9363,1.3121 Z" id="Path"></path>
        </g>
    </g>
</svg>