<svg width="14" height="14" viewBox="0 0 14 14" fill="none" xmlns="http://www.w3.org/2000/svg">
<path d="M4.7691 6.7284C5.089 6.4624 5.4117 6.4624 5.7393 6.7361L5.8149 6.8047L9.3051 10.2949L9.3709 10.353C9.50559 10.4574 9.67374 10.5091 9.84382 10.4984C10.0139 10.4876 10.1742 10.4152 10.2947 10.2947C10.4152 10.1742 10.4876 10.0139 10.4984 9.84382C10.5091 9.67374 10.4574 9.50559 10.353 9.3709L10.2949 9.3051L9.3905 8.4L9.5949 8.1949L9.6691 8.1284C9.989 7.8624 10.3117 7.8624 10.6393 8.1361L10.7149 8.2047L13.9867 11.4772C13.9204 12.1438 13.6174 12.7645 13.1325 13.2268C12.6477 13.689 12.0132 13.9621 11.3442 13.9965L11.2 14H2.8C2.10554 14 1.43587 13.7418 0.921031 13.2758C0.406193 12.8097 0.0829255 12.1689 0.014 11.4779L4.6949 6.7949L4.7691 6.7284ZM11.2 0C11.9184 -5.61928e-07 12.6093 0.276105 13.1298 0.771207C13.6503 1.26631 13.9606 1.94253 13.9965 2.66L14 2.8V9.5095L11.6949 7.2051L11.5899 7.1092C10.7107 6.3427 9.5949 6.3413 8.7227 7.0973L8.6149 7.1953L8.4 7.4095L6.7949 5.8051L6.6899 5.7092C5.8107 4.9427 4.6949 4.9413 3.8227 5.6973L3.7149 5.7953L0 9.5095V2.8C-5.61928e-07 2.08163 0.276105 1.39074 0.771207 0.870232C1.26631 0.349723 1.94253 0.0394186 2.66 0.00350008L2.8 0H11.2ZM9.107 3.5L9.0181 3.5049C8.84797 3.52514 8.69116 3.60707 8.57739 3.73518C8.46362 3.86328 8.40078 4.02867 8.40078 4.2C8.40078 4.37133 8.46362 4.53672 8.57739 4.66482C8.69116 4.79293 8.84797 4.87486 9.0181 4.8951L9.1 4.9L9.1889 4.8951C9.35903 4.87486 9.51584 4.79293 9.62961 4.66482C9.74338 4.53672 9.80622 4.37133 9.80622 4.2C9.80622 4.02867 9.74338 3.86328 9.62961 3.73518C9.51584 3.60707 9.35903 3.52514 9.1889 3.5049L9.107 3.5Z" fill="#3B82F6"/>
</svg>
