<svg width="11" height="11" viewBox="0 0 11 11" fill="none" xmlns="http://www.w3.org/2000/svg">
<path d="M4.125 10.5938C4.51172 10.5938 4.83988 10.4063 5.07418 10.043L10.4297 1.61718C10.5703 1.38281 10.711 1.125 10.711 0.86718C10.711 0.33984 10.2422 0 9.76168 0C9.45708 0 9.16408 0.1875 8.94138 0.52734L4.07813 8.33199L1.76954 5.34379C1.48829 4.96879 1.23047 4.87499 0.91407 4.87499C0.39844 4.87499 0 5.28519 0 5.80079C0 6.05859 0.10547 6.30469 0.26954 6.52729L3.12891 10.043C3.42188 10.4297 3.73829 10.5938 4.125 10.5938Z" fill="#F4F4F4"/>
</svg>
